<svg xmlns="http://www.w3.org/2000/svg" viewBox="0 0 480 270" shape-rendering="crispEdges">
  <!-- Night sky -->
  <rect x="0" y="0" width="480" height="270" fill="#0d0d1a"/>
  <!-- Stars -->
  <rect x="20"  y="10" width="2" height="2" fill="#ffffff"/>
  <rect x="55"  y="25" width="1" height="1" fill="#ddddff"/>
  <rect x="90"  y="8"  width="2" height="2" fill="#ffffff"/>
  <rect x="130" y="18" width="1" height="1" fill="#ddddff"/>
  <rect x="170" y="5"  width="2" height="2" fill="#ffffff"/>
  <rect x="210" y="22" width="1" height="1" fill="#ddddff"/>
  <rect x="250" y="12" width="2" height="2" fill="#ffffff"/>
  <rect x="300" y="6"  width="1" height="1" fill="#ddddff"/>
  <rect x="340" y="20" width="2" height="2" fill="#ffffff"/>
  <rect x="380" y="9"  width="1" height="1" fill="#ddddff"/>
  <rect x="420" y="16" width="2" height="2" fill="#ffffff"/>
  <rect x="455" y="4"  width="2" height="2" fill="#ffffff"/>
  <rect x="40"  y="40" width="1" height="1" fill="#aaaacc"/>
  <rect x="110" y="35" width="1" height="1" fill="#aaaacc"/>
  <rect x="195" y="42" width="1" height="1" fill="#aaaacc"/>
  <rect x="270" y="38" width="1" height="1" fill="#aaaacc"/>
  <rect x="360" y="44" width="1" height="1" fill="#aaaacc"/>
  <rect x="440" y="30" width="1" height="1" fill="#aaaacc"/>
  <!-- Moon -->
  <rect x="400" y="15" width="30" height="30" fill="#ffeeaa"/>
  <rect x="398" y="17" width="34" height="26" fill="#ffeeaa"/>
  <!-- Moon crater -->
  <rect x="408" y="22" width="6" height="6" fill="#ddcc88"/>
  <rect x="416" y="30" width="4" height="4" fill="#ddcc88"/>
  <!-- Castle silhouette towers -->
  <rect x="0"   y="80"  width="60"  height="150" fill="#1a1a2e"/>
  <rect x="420" y="80"  width="60"  height="150" fill="#1a1a2e"/>
  <rect x="100" y="110" width="80"  height="120" fill="#1a1a2e"/>
  <rect x="300" y="110" width="80"  height="120" fill="#1a1a2e"/>
  <!-- Tower battlements -->
  <rect x="0"   y="70"  width="10"  height="12" fill="#1a1a2e"/>
  <rect x="16"  y="70"  width="10"  height="12" fill="#1a1a2e"/>
  <rect x="32"  y="70"  width="10"  height="12" fill="#1a1a2e"/>
  <rect x="48"  y="70"  width="12"  height="12" fill="#1a1a2e"/>
  <rect x="420" y="70"  width="10"  height="12" fill="#1a1a2e"/>
  <rect x="436" y="70"  width="10"  height="12" fill="#1a1a2e"/>
  <rect x="452" y="70"  width="10"  height="12" fill="#1a1a2e"/>
  <rect x="100" y="100" width="10"  height="12" fill="#1a1a2e"/>
  <rect x="116" y="100" width="10"  height="12" fill="#1a1a2e"/>
  <rect x="132" y="100" width="10"  height="12" fill="#1a1a2e"/>
  <rect x="148" y="100" width="10"  height="12" fill="#1a1a2e"/>
  <rect x="162" y="100" width="18"  height="12" fill="#1a1a2e"/>
  <!-- Tower windows (glowing orange-ish) -->
  <rect x="18"  y="95"  width="10" height="14" fill="#332200"/>
  <rect x="20"  y="95"  width="6"  height="10" fill="#ff8800" opacity="0.4"/>
  <rect x="430" y="95"  width="10" height="14" fill="#332200"/>
  <rect x="432" y="95"  width="6"  height="10" fill="#ff8800" opacity="0.4"/>
  <rect x="125" y="125" width="10" height="14" fill="#332200"/>
  <rect x="127" y="125" width="6"  height="10" fill="#aa6600" opacity="0.5"/>
  <rect x="145" y="125" width="10" height="14" fill="#332200"/>
  <!-- Castle gate -->
  <rect x="200" y="170" width="80"  height="60" fill="#1a1a2e"/>
  <rect x="210" y="160" width="60"  height="70" fill="#22223a"/>
  <rect x="230" y="155" width="20"  height="75" fill="#22223a"/>
  <!-- Gate arch (darker) -->
  <rect x="220" y="200" width="40"  height="30" fill="#0d0d1a"/>
  <!-- Ground fog -->
  <rect x="0"   y="240" width="480" height="30" fill="#1a1a3a" opacity="0.7"/>
  <!-- Stone floor -->
  <rect x="0"   y="250" width="480" height="20" fill="#2a2a3a"/>
  <rect x="0"   y="250" width="480" height="2"  fill="#3a3a4a"/>
  <!-- Floor stones -->
  <rect x="40"  y="252" width="1" height="18" fill="#222233"/>
  <rect x="80"  y="252" width="1" height="18" fill="#222233"/>
  <rect x="120" y="252" width="1" height="18" fill="#222233"/>
  <rect x="160" y="252" width="1" height="18" fill="#222233"/>
  <rect x="200" y="252" width="1" height="18" fill="#222233"/>
  <rect x="240" y="252" width="1" height="18" fill="#222233"/>
  <rect x="280" y="252" width="1" height="18" fill="#222233"/>
  <rect x="320" y="252" width="1" height="18" fill="#222233"/>
  <rect x="360" y="252" width="1" height="18" fill="#222233"/>
  <rect x="400" y="252" width="1" height="18" fill="#222233"/>
  <rect x="440" y="252" width="1" height="18" fill="#222233"/>
</svg>
